<svg xmlns="http://www.w3.org/2000/svg" xmlns:xlink="http://www.w3.org/1999/xlink" width="332.216" height="37.1524"><path fill="#000" d="M12.46 29.42L16.29 29.42L16.29 7.39L10.71 7.39C5.10 7.39 2.16 10.27 2.16 14.52C2.16 17.91 3.77 19.91 6.66 21.97L1.65 29.42L5.80 29.42L11.38 21.08L9.45 19.78C7.10 18.20 5.96 16.96 5.96 14.30C5.96 11.95 7.61 10.37 10.75 10.37L12.46 10.37ZM86.41 29.73C88.16 29.73 89.39 29.42 90.31 28.75L90.31 25.68C89.36 26.34 88.22 26.75 86.64 26.75C83.94 26.75 82.83 24.66 82.83 21.37C82.83 17.91 84.20 16.14 86.67 16.14C88.13 16.14 89.55 16.64 90.31 17.12L90.31 13.92C89.52 13.47 88.13 13.16 86.26 13.16C81.44 13.16 78.93 16.61 78.93 21.46C78.93 26.79 81.37 29.73 86.41 29.73ZM62.83 28.34L62.83 25.26C61.66 26.06 59.69 26.75 57.85 26.75C55.09 26.75 54.05 25.46 53.89 22.79L62.99 22.79L62.99 20.80C62.99 15.25 60.55 13.16 56.77 13.16C52.18 13.16 49.99 16.67 49.99 21.49C49.99 27.04 52.72 29.73 57.54 29.73C59.94 29.73 61.72 29.10 62.83 28.34ZM74.88 29.42L79.15 29.42L73.10 20.95L78.43 13.47L74.62 13.47L69.30 20.95L69.30 13.47L65.52 13.47L65.52 29.42L69.30 29.42L69.30 21.71ZM49.07 26.44L47.39 26.44L47.39 13.47L36.39 13.47L36.39 14.84C36.39 18.73 36.14 23.77 34.81 26.44L33.63 26.44L33.63 33.06L37.12 33.06L37.12 29.42L45.58 29.42L45.58 33.06L49.07 33.06ZM28.28 13.47L28.28 19.78L23.24 19.78L23.24 13.47L19.46 13.47L19.46 29.42L23.24 29.42L23.24 22.76L28.28 22.76L28.28 29.42L32.05 29.42L32.05 13.47ZM56.71 16.14C58.58 16.14 59.15 17.69 59.15 19.69L59.15 20.00L53.89 20.00C53.99 17.47 54.90 16.14 56.71 16.14ZM43.62 26.44L38.29 26.44C39.34 24.03 39.63 19.69 39.63 16.93L39.63 16.45L43.62 16.45ZM99.19 7.39L99.19 29.42L103.02 29.42L103.02 10.37L109.87 10.37L109.87 29.42L113.71 29.42L113.71 7.39ZM123.28 13.16C119.13 13.16 116.24 16.10 116.24 21.46C116.24 26.79 119.13 29.73 123.28 29.73C127.43 29.73 130.32 26.79 130.32 21.43C130.32 16.10 127.43 13.16 123.28 13.16ZM123.28 26.75C121.19 26.75 120.14 25.14 120.14 21.46C120.14 17.75 121.19 16.14 123.28 16.14C125.37 16.14 126.42 17.75 126.42 21.43C126.42 25.14 125.37 26.75 123.28 26.75ZM138.43 21.24C136.88 21.24 136.15 20.41 136.15 18.48L136.15 13.47L132.38 13.47L132.38 18.45C132.38 22.32 134.22 24.16 137.51 24.16C138.88 24.16 140.02 23.81 140.91 23.27L140.91 29.42L144.68 29.42L144.68 13.47L140.91 13.47L140.91 20.54C140.24 21.02 139.38 21.24 138.43 21.24ZM159.55 16.45L159.55 13.47L146.90 13.47L146.90 16.45L151.34 16.45L151.34 29.42L155.11 29.42L155.11 16.45ZM172.73 18.54C172.73 14.68 170.77 13.22 166.77 13.22C164.27 13.22 162.30 14.01 161.16 14.68L161.16 17.82C162.18 17.05 164.40 16.23 166.33 16.23C168.14 16.23 168.96 16.86 168.96 18.58L168.96 19.46L168.36 19.46C162.59 19.46 160.02 21.37 160.02 24.60C160.02 27.83 161.99 29.64 164.90 29.64C167.12 29.64 168.07 28.91 168.80 28.15L168.96 28.15C168.99 28.56 169.12 29.10 169.25 29.42L172.92 29.42C172.80 28.12 172.73 26.82 172.73 25.52ZM168.96 25.61C168.49 26.31 167.60 26.88 166.27 26.88C164.68 26.88 163.89 25.99 163.89 24.63C163.89 22.82 165.19 22.16 168.42 22.16L168.96 22.16ZM196.13 26.44L194.45 26.44L194.45 13.47L183.45 13.47L183.45 14.84C183.45 18.73 183.19 23.77 181.86 26.44L180.69 26.44L180.69 33.06L184.18 33.06L184.18 29.42L192.64 29.42L192.64 33.06L196.13 33.06ZM190.68 26.44L185.35 26.44C186.40 24.03 186.68 19.69 186.68 16.93L186.68 16.45L190.68 16.45ZM197.24 26.15L197.24 29.42C197.24 29.42 197.84 29.73 198.73 29.73C201.96 29.73 202.78 27.45 202.98 22.16L203.20 16.45L207.03 16.45L207.03 29.42L210.81 29.42L210.81 13.47L200.00 13.47L199.68 22.00C199.55 25.39 199.33 26.44 198.09 26.44C197.55 26.44 197.24 26.15 197.24 26.15ZM212.87 29.42L216.73 29.42L219.78 24.22L221.58 24.22L221.58 29.42L225.36 29.42L225.36 13.47L219.59 13.47C215.91 13.47 213.28 15.34 213.28 18.77C213.28 21.18 214.42 22.70 216.45 23.39ZM219.87 16.45L221.58 16.45L221.58 21.46L219.78 21.46C218.06 21.46 217.11 20.73 217.11 18.89C217.11 17.15 218.22 16.45 219.87 16.45ZM250.08 29.42L244.28 7.39L239.43 7.39L233.60 29.42L237.05 29.42L238.29 24.60L244.88 24.60L246.09 29.42ZM239.05 21.62L241.62 11.73L244.12 21.62ZM255.91 17.97C256.61 17.12 257.72 16.39 259.08 16.39C260.42 16.39 261.02 16.96 261.02 18.16L261.02 29.42L264.79 29.42L264.79 17.78C264.79 14.61 263.52 13.22 260.45 13.22C258.20 13.22 256.87 14.04 256.10 14.80L255.91 14.80L255.82 13.47L252.14 13.47L252.14 29.42L255.91 29.42ZM273.19 29.73C274.97 29.73 276.42 28.91 277.44 27.36L277.63 29.42L281.12 29.42L281.12 7.39L277.34 7.39L277.34 15.34C276.39 13.92 275.00 13.16 273.35 13.16C269.70 13.16 267.17 16.23 267.17 21.56C267.17 26.82 269.64 29.73 273.19 29.73ZM274.30 16.14C276.33 16.14 277.34 17.75 277.34 21.43C277.34 25.14 276.27 26.75 274.14 26.75C272.08 26.75 271.07 25.17 271.07 21.56C271.07 17.78 272.14 16.14 274.30 16.14ZM288.06 19.46C289.10 17.53 290.66 16.55 292.97 16.67L292.97 13.12C290.82 13.25 289.04 14.55 288.15 16.64L288.06 16.64L287.96 13.47L284.29 13.47L284.29 29.42L288.06 29.42ZM300.80 13.16C296.65 13.16 293.76 16.10 293.76 21.46C293.76 26.79 296.65 29.73 300.80 29.73C304.95 29.73 307.84 26.79 307.84 21.43C307.84 16.10 304.95 13.16 300.80 13.16ZM300.80 26.75C298.71 26.75 297.66 25.14 297.66 21.46C297.66 17.75 298.71 16.14 300.80 16.14C302.89 16.14 303.94 17.75 303.94 21.43C303.94 25.14 302.89 26.75 300.80 26.75ZM312.25 11.51C313.48 11.51 314.46 10.65 314.46 9.29C314.46 7.96 313.48 7.07 312.25 7.07C311.01 7.07 310.06 7.96 310.06 9.29C310.06 10.65 311.01 11.51 312.25 11.51ZM310.37 13.47L310.37 29.42L314.15 29.42L314.15 13.47ZM322.71 29.73C324.48 29.73 325.94 28.91 326.95 27.36L327.14 29.42L330.63 29.42L330.63 7.39L326.86 7.39L326.86 15.34C325.91 13.92 324.51 13.16 322.86 13.16C319.22 13.16 316.68 16.23 316.68 21.56C316.68 26.82 319.16 29.73 322.71 29.73ZM323.82 16.14C325.84 16.14 326.86 17.75 326.86 21.43C326.86 25.14 325.78 26.75 323.66 26.75C321.60 26.75 320.58 25.17 320.58 21.56C320.58 17.78 321.66 16.14 323.82 16.14Z"/></svg>