 <svg 
    xmlns="http://www.w3.org/2000/svg"
    xmlns:xlink="http://www.w3.org/1999/xlink"
    width="43px" height="45px">
    <path fill-rule="evenodd"  fill="rgb(16, 45, 105)"
    d="M41.749,44.651 C40.918,45.109 39.928,45.125 39.539,44.687 L21.361,24.201 L3.183,44.687 C2.794,45.125 1.805,45.109 0.973,44.651 C0.141,44.194 -0.218,43.468 0.170,43.029 L19.120,21.674 L2.008,2.390 C1.619,1.952 1.979,1.226 2.811,0.768 C3.643,0.311 4.632,0.295 5.021,0.733 L21.361,19.148 L37.702,0.733 C38.091,0.295 39.080,0.311 39.912,0.768 C40.744,1.226 41.103,1.952 40.715,2.390 L23.603,21.674 L42.552,43.029 C42.941,43.468 42.581,44.194 41.749,44.651 Z"/>
</svg>