<svg width="100" height="100" viewBox="0 0 100 100" fill="none" xmlns="http://www.w3.org/2000/svg">
<path d="M49.9978 99.8838C77.6109 99.8838 99.9957 77.524 99.9957 49.9419C99.9957 22.3597 77.6109 0 49.9978 0C22.3848 0 0 22.3597 0 49.9419C0 77.524 22.3848 99.8838 49.9978 99.8838Z" fill="#F6F6F6"/>
<path d="M34.5995 26.668H32.7891V31.9037H66.3422V26.668H64.5318H34.5995Z" fill="#CCCCCC"/>
<path d="M55.1671 12.7269C55.1283 12.9594 54.9645 14.0143 55.1757 14.9315V17.1618H44.1753V14.9315C44.4123 13.9024 44.1753 12.6839 44.1753 12.6839V10.4492H44.0718V12.6796C38.5198 14.8712 34.6016 20.3523 34.6016 26.6688H64.5339C64.5339 20.3911 60.663 14.9444 55.1671 12.7269Z" fill="#CCCCCC"/>
<path d="M44.1738 14.935V17.1653H55.1743V14.935C54.9674 14.0178 55.1269 12.9586 55.1657 12.7304C55.1312 12.7175 55.0967 12.7003 55.0622 12.6874V10.457H44.1738V12.6917C44.1738 12.6831 44.4152 13.9059 44.1738 14.935Z" fill="#CCCCCC"/>
<path d="M21.4674 56.3008H18.4414V88.5634C20.2648 90.0489 22.1916 91.4052 24.2132 92.6237H32.2265L21.4674 56.3008Z" fill="#CCCCCC"/>
<path d="M70.3137 56.3008H58.6839L50.5844 70.389C50.5844 70.389 49.4507 72.8777 48.9766 75.2545V92.6237H59.5546L70.3137 56.3008Z" fill="#CCCCCC"/>
<path d="M67.1914 92.628L77.9505 56.3008H70.3122L59.5488 92.628H67.1914Z" fill="white"/>
<path d="M77.9529 56.3008L67.1895 92.6237H75.7847C77.4916 91.5946 79.1296 90.4665 80.6944 89.2523V56.3008H77.9529Z" fill="#CCCCCC"/>
<path d="M59.5506 92.6289H48.9726H47.9596H39.8687H32.2262H24.2129C31.7434 97.1671 40.567 99.7764 49.9985 99.7764C59.4342 99.7764 68.2579 97.1628 75.7841 92.6289H67.1889H59.5506Z" fill="white"/>
<path d="M39.8685 92.628L29.1051 56.3008H21.4668L32.2259 92.628H39.8685Z" fill="white"/>
<path d="M47.9597 92.6276V75.2584C48.4382 72.8773 49.5676 70.393 49.5676 70.393L41.425 56.3047H29.1055L39.8689 92.6276H47.9597Z" fill="#CCCCCC"/>
<path d="M99.7457 50C99.7457 77.4762 77.4728 99.75 49.9978 99.75C22.5229 99.75 0.25 77.4762 0.25 50C0.25 22.5238 22.5229 0.25 49.9978 0.25C77.4728 0.25 99.7457 22.5238 99.7457 50Z" stroke="#CCCCCC" stroke-width="0.5"/>
</svg>
