<svg width="15" height="16" viewBox="0 0 15 16" fill="none" xmlns="http://www.w3.org/2000/svg">
<path d="M1.02975 4.44726L1.03846 13.9898C1.03896 14.542 1.48709 14.9893 2.03937 14.9888L10.0437 14.9811C10.596 14.9805 11.0433 14.5324 11.0428 13.9801L11.0362 6.74612C11.0357 6.19384 10.5875 5.74655 10.0353 5.74708L9.03396 5.74805C8.48167 5.74858 8.03355 5.3013 8.03305 4.74901L8.03277 4.44051C8.03226 3.88823 7.58414 3.44095 7.03185 3.44148L2.02884 3.4463C1.47655 3.44683 1.02925 3.89498 1.02975 4.44726Z" stroke="black" stroke-linecap="round" stroke-linejoin="round"/>
<path d="M11.4132 13.4576L13.0482 13.4575C13.6008 13.4575 14.0486 13.0092 14.0481 12.4566L14.0425 6.47443L14.0383 1.98777C14.0378 1.43548 13.5896 0.988187 13.0374 0.988705L4.14154 0.997048C3.58926 0.997566 3.14196 1.4457 3.14248 1.99799L3.14341 2.99314" stroke="black" stroke-linecap="round" stroke-linejoin="round"/>
<line x1="4.12795" y1="7.98918" x2="8.03911" y2="8.01616" stroke="black" stroke-linecap="round"/>
<line x1="4.03518" y1="9.98995" x2="8.03518" y2="9.9862" stroke="black" stroke-linecap="round"/>
<line x1="4.03564" y1="11.9857" x2="8.0358" y2="11.9857" stroke="black" stroke-linecap="round"/>
</svg>
