<svg xmlns="http://www.w3.org/2000/svg" width="156.54" height="51.268" viewBox="0 0 156.54 51.268">
  <g id="Logo" transform="translate(481.123 -158.511)">
    <path id="Path_244" data-name="Path 244" d="M-465.8,174.673h17.4v7.03h-17.4a8.248,8.248,0,0,0-1.612.159h0a8.192,8.192,0,0,0-1.545.47,8.339,8.339,0,0,0-1.432.77,8.471,8.471,0,0,0-1.263,1.04,8.449,8.449,0,0,0-1.04,1.263,8.274,8.274,0,0,0-.769,1.432,8.172,8.172,0,0,0-.47,1.545h0a8.252,8.252,0,0,0-.159,1.612,8.253,8.253,0,0,0,.159,1.613h0a8.173,8.173,0,0,0,.47,1.545,8.3,8.3,0,0,0,.769,1.432,8.449,8.449,0,0,0,1.04,1.263h0a8.394,8.394,0,0,0,1.263,1.04,8.273,8.273,0,0,0,1.431.77,8.274,8.274,0,0,0,1.545.47h0a8.248,8.248,0,0,0,1.612.158h17.551v7.03H-465.8a15.247,15.247,0,0,1-2.982-.293,15.221,15.221,0,0,1-2.864-.872,15.374,15.374,0,0,1-2.649-1.419,15.509,15.509,0,0,1-2.328-1.912,15.409,15.409,0,0,1-1.912-2.328,15.3,15.3,0,0,1-1.42-2.649,15.21,15.21,0,0,1-.873-2.864,15.247,15.247,0,0,1-.293-2.982,15.241,15.241,0,0,1,.293-2.982,15.223,15.223,0,0,1,.873-2.864,15.342,15.342,0,0,1,1.42-2.649,15.433,15.433,0,0,1,1.912-2.327,15.474,15.474,0,0,1,2.328-1.913,15.328,15.328,0,0,1,2.648-1.419,15.213,15.213,0,0,1,2.865-.873,15.281,15.281,0,0,1,2.982-.293" transform="translate(0 -7.04)" fill="#fefefe" fill-rule="evenodd"/>
    <path id="Path_245" data-name="Path 245" d="M-320.944,181.554H-332.8a8.28,8.28,0,0,0-3.187.634,8.432,8.432,0,0,0-2.719,1.826,8.438,8.438,0,0,0-1.826,2.719,8.28,8.28,0,0,0-.634,3.187,8.28,8.28,0,0,0,.634,3.187,8.438,8.438,0,0,0,1.826,2.719,8.439,8.439,0,0,0,2.719,1.826,8.28,8.28,0,0,0,3.187.634h11.858a8.28,8.28,0,0,0,3.187-.634,8.439,8.439,0,0,0,2.719-1.823l0,0a8.421,8.421,0,0,0,1.823-2.719,8.28,8.28,0,0,0,.635-3.187,8.28,8.28,0,0,0-.635-3.187,8.421,8.421,0,0,0-1.823-2.719h0a8.439,8.439,0,0,0-2.719-1.826,8.28,8.28,0,0,0-3.187-.634m-11.858-6.915h11.858a15.165,15.165,0,0,1,5.832,1.162,15.366,15.366,0,0,1,4.963,3.324,15.368,15.368,0,0,1,3.324,4.964,15.16,15.16,0,0,1,1.162,5.831,15.163,15.163,0,0,1-1.162,5.831,15.369,15.369,0,0,1-3.324,4.964,15.349,15.349,0,0,1-4.963,3.323,15.166,15.166,0,0,1-5.832,1.163H-332.8a15.161,15.161,0,0,1-5.831-1.163,15.358,15.358,0,0,1-4.964-3.323,15.369,15.369,0,0,1-3.324-4.964,15.163,15.163,0,0,1-1.162-5.831,15.16,15.16,0,0,1,1.162-5.831,15.368,15.368,0,0,1,3.324-4.964,15.368,15.368,0,0,1,4.964-3.324A15.16,15.16,0,0,1-332.8,174.639Z" transform="translate(-57.951 -7.025)" fill="#fefefe" fill-rule="evenodd"/>
    <path id="Path_246" data-name="Path 246" d="M-216.525,218.008a.63.63,0,0,1,.671.7.63.63,0,0,1-.671.7H-219.1v-1.392Zm.178,2.655a.733.733,0,0,1,.77.829.733.733,0,0,1-.77.829H-219.1v-1.658Zm-4.569,2.507a.452.452,0,0,0,.454.453h4.145c1.352,0,2.556-.7,2.556-2.072a1.721,1.721,0,0,0-.928-1.6,1.521,1.521,0,0,0,.652-1.278c0-1.436-1.273-1.969-2.507-1.969h-9.706a.447.447,0,0,0-.454.454v.454a.446.446,0,0,0,.454.454h2.152v5.111a.452.452,0,0,0,.454.445h.908a.452.452,0,0,0,.454-.445v-5.111h1.367Z" transform="translate(-110.821 -25.349)" fill="#fede07"/>
    <path id="Path_247" data-name="Path 247" d="M-401.06,185.515h9.336a5.753,5.753,0,0,0-1.544-2.779,5.715,5.715,0,0,0-4.049-1.687h-13.333v17.719h17.859a5.715,5.715,0,0,0,4.049-1.687,5.715,5.715,0,0,0,1.687-4.049v-.966h-17.281v-3.275a3.286,3.286,0,0,1,3.275-3.276m-16.14-10.934h19.884a12.168,12.168,0,0,1,8.621,3.582,12.186,12.186,0,0,1,3.516,7.351h1.317a3.286,3.286,0,0,1,3.275,3.276v4.242a12.168,12.168,0,0,1-3.582,8.621,12.167,12.167,0,0,1-8.621,3.582H-417.2V174.581Z" transform="translate(-27.844 -7)" fill="#fefefe" fill-rule="evenodd"/>
    <path id="Path_248" data-name="Path 248" d="M-248.3,158.511h-8.869a3.228,3.228,0,0,0-3.219,3.219v3.219H-248.3Z" transform="translate(-96.148)" fill="#fede07" fill-rule="evenodd"/>
    <path id="Path_249" data-name="Path 249" d="M-233.2,158.511h8.869a3.228,3.228,0,0,1,3.219,3.219v3.219H-233.2Z" transform="translate(-107.992)" fill="#fede07" fill-rule="evenodd"/>
    <path id="Path_250" data-name="Path 250" d="M-253.082,174.672h5.836a15.2,15.2,0,0,1,5.847,1.166,15.406,15.406,0,0,1,4.976,3.332,15.412,15.412,0,0,1,3.332,4.976,15.2,15.2,0,0,1,1.166,5.847c0,.214-.007.459-.02.734-.011.243-.029.489-.053.735l-.069.724h-.829v.006H-254.94V188.93a3.272,3.272,0,0,1,3.263-3.263h11.607a8.485,8.485,0,0,0-1.254-1.594,8.458,8.458,0,0,0-2.727-1.83,8.3,8.3,0,0,0-3.2-.636h-5.836a8.3,8.3,0,0,0-3.2.636,8.456,8.456,0,0,0-2.726,1.83,8.463,8.463,0,0,0-1.831,2.727,8.3,8.3,0,0,0-.636,3.195,8.317,8.317,0,0,0,.293,2.193h0a8.283,8.283,0,0,0,.344,1,8.458,8.458,0,0,0,1.83,2.727,8.461,8.461,0,0,0,2.727,1.83,8.3,8.3,0,0,0,3.195.636h7.009v6.933h-7.009a15.2,15.2,0,0,1-5.846-1.166,15.393,15.393,0,0,1-4.977-3.332,15.394,15.394,0,0,1-3.332-4.976,15.206,15.206,0,0,1-1.007-3.653h0a15.294,15.294,0,0,1-.157-2.193,15.2,15.2,0,0,1,1.165-5.847,15.406,15.406,0,0,1,3.332-4.976,15.4,15.4,0,0,1,4.977-3.332,15.2,15.2,0,0,1,5.846-1.166" transform="translate(-92.658 -7.04)" fill="#fefefe"/>
    <path id="Path_251" data-name="Path 251" d="M-328.786,239.768c0-.479.172-.666.822-.666h1.877c.344,0,.456.12.456.426v.314c0,.1-.037.127-.127.127h-3.029Zm.718-1.5c-1.346,0-1.78.433-1.78,1.518v1.077c0,1.085.434,1.511,1.78,1.511h3.223a.119.119,0,0,0,.134-.134v-.628a.119.119,0,0,0-.134-.135h-3.119c-.65,0-.822-.195-.822-.665v-.179h3.776c.292,0,.426-.1.426-.426V239.5c0-.905-.269-1.226-1.294-1.226Zm-7.92,0a.154.154,0,0,0-.172.172V241.6c0,.606.225.778.681.778h.4a.941.941,0,0,0,.912-.441l2.251-2.625a.109.109,0,0,1,.1-.052h.067c.045,0,.06.022.06.074v2.879a.144.144,0,0,0,.164.165h.733c.112,0,.172-.052.172-.165v-3.156c0-.614-.217-.785-.673-.785h-.419a.96.96,0,0,0-.92.441l-2.244,2.625a.1.1,0,0,1-.1.052h-.067c-.037,0-.06-.023-.06-.074v-2.872c0-.112-.052-.172-.165-.172Zm-6.484,0a.154.154,0,0,0-.172.172v3.769c0,.112.06.165.172.165h.733a.144.144,0,0,0,.164-.165v-1.488h3.41v1.488a.144.144,0,0,0,.165.165h.733c.112,0,.172-.052.172-.165v-3.769a.154.154,0,0,0-.172-.172H-338c-.112,0-.165.06-.165.172v1.4h-3.41v-1.4c0-.112-.052-.172-.164-.172Zm-5.168,1.5c0-.479.172-.666.823-.666h1.877c.344,0,.456.12.456.426v.314c0,.1-.037.127-.127.127h-3.029Zm.718-1.5c-1.346,0-1.78.433-1.78,1.518v1.077c0,1.085.433,1.511,1.78,1.511h3.223a.119.119,0,0,0,.135-.134v-.628a.119.119,0,0,0-.135-.135h-3.118c-.651,0-.823-.195-.823-.665v-.179h3.777c.291,0,.426-.1.426-.426V239.5c0-.905-.269-1.226-1.294-1.226Zm-6.865,3.223a14.41,14.41,0,0,0,.419-2.109c.015-.09.037-.165.194-.165h1.623c.1,0,.142.038.142.12V241.5Zm.224-3.223c-.441,0-.561.2-.606.509a11.857,11.857,0,0,1-.433,2.273c-.15.382-.344.441-.531.441h-.643c-.112,0-.172.052-.172.165v1.952c0,.112.06.165.172.165h.6a.144.144,0,0,0,.165-.165v-1.234h4.891v1.234c0,.112.059.165.172.165h.6a.144.144,0,0,0,.165-.165V241.66a.144.144,0,0,0-.165-.165h-.995v-2.625c0-.382-.179-.6-.628-.6Zm-8.391,0a.154.154,0,0,0-.172.172V241.6c0,.606.225.778.681.778h.4a.942.942,0,0,0,.913-.441l2.251-2.625a.109.109,0,0,1,.1-.052h.068c.045,0,.06.022.06.074v2.879a.144.144,0,0,0,.164.165h.733c.112,0,.172-.052.172-.165v-3.156c0-.614-.217-.785-.673-.785h-.419a.96.96,0,0,0-.92.441l-2.244,2.625a.1.1,0,0,1-.1.052H-361c-.038,0-.06-.023-.06-.074v-2.872c0-.112-.052-.172-.165-.172Zm-5.31.942c0-.075.03-.1.1-.1h2.722c.306,0,.427.112.427.352v.164c0,.217-.112.336-.411.336h-2.835Zm2.827,1.413c.314,0,.426.127.426.367v.217c0,.217-.112.329-.419.329h-2.737c-.067,0-.1-.03-.1-.1v-.816Zm-3.679-2.355a.2.2,0,0,0-.217.224v3.665a.194.194,0,0,0,.217.217h4.008c.86,0,1.151-.4,1.151-1.017v-.336a.813.813,0,0,0-.426-.763.826.826,0,0,0,.389-.733v-.284c0-.651-.336-.972-1.241-.972Zm-5.213,1.5c0-.479.172-.666.822-.666h1.878c.344,0,.456.12.456.426v.314c0,.1-.038.127-.128.127h-3.029Zm.718-1.5c-1.346,0-1.78.433-1.78,1.518v1.077c0,1.085.433,1.511,1.78,1.511h3.223a.119.119,0,0,0,.134-.134v-.628a.119.119,0,0,0-.134-.135h-3.119c-.65,0-.822-.195-.822-.665v-.179h3.776c.292,0,.426-.1.426-.426V239.5c0-.905-.269-1.226-1.294-1.226Zm-5.773,0c-.441,0-.561.2-.606.509a11.844,11.844,0,0,1-.434,2.273c-.15.382-.344.441-.531.441h-.531c-.1,0-.15.052-.15.172v.546c0,.112.052.165.15.165h.71a1.018,1.018,0,0,0,1.1-.7,12.194,12.194,0,0,0,.487-2.288c.015-.09.037-.165.194-.165h1.623c.1,0,.142.038.142.12v2.864c0,.112.052.172.157.172h.756c.1,0,.149-.06.149-.179v-3.328c0-.382-.179-.6-.628-.6Zm-6.955,1.5c0-.479.172-.666.822-.666h1.878c.344,0,.456.12.456.426v.314c0,.1-.038.127-.128.127h-3.029Zm.718-1.5c-1.346,0-1.78.433-1.78,1.518v1.077c0,1.085.433,1.511,1.78,1.511h3.223a.119.119,0,0,0,.134-.134v-.628a.119.119,0,0,0-.134-.135h-3.119c-.65,0-.822-.195-.822-.665v-.179h3.776c.292,0,.427-.1.427-.426V239.5c0-.905-.269-1.226-1.294-1.226Zm-7.875,0a.119.119,0,0,0-.134.134v.628c0,.1.045.135.134.135h2.206v3.043c0,.112.06.165.172.165h.733a.144.144,0,0,0,.165-.165V239.17h2.206c.089,0,.134-.038.134-.135v-.628a.119.119,0,0,0-.134-.134Zm-7.344,1.5c0-.479.172-.666.823-.666h1.877c.344,0,.456.12.456.426v.314c0,.1-.037.127-.127.127h-3.029Zm.718-1.5c-1.346,0-1.78.433-1.78,1.518v1.077c0,1.085.433,1.511,1.78,1.511h3.223a.119.119,0,0,0,.135-.134v-.628a.119.119,0,0,0-.135-.135h-3.118c-.651,0-.823-.195-.823-.665v-.179h3.777c.292,0,.426-.1.426-.426V239.5c0-.905-.269-1.226-1.294-1.226Zm-7.1,1.7c0-.628.172-.815.815-.815h1.907c.651,0,.822.187.822.815v.711c0,.628-.172.822-.822.822h-1.907c-.643,0-.815-.194-.815-.822Zm.711-1.7c-1.346,0-1.78.433-1.78,1.518v1.077c0,1.085.434,1.511,1.78,1.511h2.117c1.346,0,1.78-.426,1.78-1.511V239.79c0-1.084-.434-1.518-1.78-1.518Zm-7.127,0a.154.154,0,0,0-.172.172v3.769c0,.112.06.165.172.165h.733a.144.144,0,0,0,.165-.165V240.7h1.084c.411,0,.568.067.748.314l.912,1.257a.218.218,0,0,0,.225.1h.845a.112.112,0,0,0,.09-.187l-1.069-1.436a1.7,1.7,0,0,0-.524-.479,2.328,2.328,0,0,0,.456-.478l.965-1.324c.075-.1.038-.2-.074-.2h-.838a.244.244,0,0,0-.232.127l-.83,1.181c-.194.277-.321.314-.748.314h-1.009v-1.451c0-.112-.052-.172-.165-.172Zm-4.016,0c-1.346,0-1.78.433-1.78,1.518v1.077c0,1.085.433,1.511,1.78,1.511h3.007a.119.119,0,0,0,.134-.134v-.628a.119.119,0,0,0-.134-.135h-2.9c-.651,0-.815-.195-.815-.823v-.665c0-.628.164-.822.815-.822h2.9c.09,0,.134-.038.134-.135v-.628a.119.119,0,0,0-.134-.134Zm-4.09,2.041c.449,0,.606.15.606.471v.284c0,.322-.157.471-.606.471H-423.3c-.052,0-.075-.03-.075-.09v-1.137Zm-3.538-2.041c-.1,0-.157.06-.157.179v3.709a.188.188,0,0,0,.209.217h3.695c1.047,0,1.458-.4,1.458-1.182v-.5c0-.763-.411-1.175-1.458-1.175h-2.835v-1.069q0-.179-.157-.179Zm-4.308,0c-.441,0-.561.2-.606.509a11.8,11.8,0,0,1-.434,2.273c-.15.382-.344.441-.531.441h-.531c-.1,0-.15.052-.15.172v.546c0,.112.052.165.15.165h.711a1.017,1.017,0,0,0,1.1-.7,12.146,12.146,0,0,0,.487-2.288c.015-.09.037-.165.194-.165h1.623c.1,0,.142.038.142.12v2.864c0,.112.053.172.158.172h.755c.1,0,.15-.06.15-.179v-3.328c0-.382-.179-.6-.628-.6Zm-7.441,1.7c0-.628.172-.815.815-.815h1.908c.65,0,.822.187.822.815v.711c0,.628-.172.822-.822.822h-1.908c-.643,0-.815-.194-.815-.822Zm.711-1.7c-1.346,0-1.78.433-1.78,1.518v1.077c0,1.085.433,1.511,1.78,1.511h2.117c1.346,0,1.78-.426,1.78-1.511V239.79c0-1.084-.433-1.518-1.78-1.518Zm-7.5,0c-.5,0-.7.2-.7.636v3.305c0,.112.06.165.172.165h.733a.144.144,0,0,0,.165-.165v-2.834c0-.112.045-.157.157-.157h3.1c.112,0,.157.045.157.157v2.834a.144.144,0,0,0,.165.165h.733c.112,0,.172-.052.172-.165v-3.305c0-.434-.195-.636-.7-.636Zm-6.177,1.7c0-.628.172-.815.815-.815h1.907c.651,0,.823.187.823.815v.711c0,.628-.172.822-.823.822h-1.907c-.643,0-.815-.194-.815-.822Zm.711-1.7c-1.346,0-1.78.433-1.78,1.518v1.077c0,1.085.434,1.511,1.78,1.511h2.117c1.346,0,1.78-.426,1.78-1.511V239.79c0-1.084-.434-1.518-1.78-1.518Zm-7.179,1.72c0-.628.172-.822.815-.822h1.885c.651,0,.822.194.822.822v.665c0,.636-.172.823-.822.823h-2.7Zm.71-1.72c-1.346,0-1.78.433-1.78,1.518v4.076c0,.112.06.164.172.164h.733a.144.144,0,0,0,.165-.164v-1.488h2.8c1.346,0,1.78-.426,1.78-1.511V239.79c0-1.084-.434-1.518-1.78-1.518Zm-6.895.942c0-.075.029-.1.1-.1h2.722c.307,0,.426.112.426.352v.164c0,.217-.112.336-.411.336h-2.834Zm2.827,1.413c.314,0,.426.127.426.367v.217c0,.217-.112.329-.419.329h-2.737c-.068,0-.1-.03-.1-.1v-.816Zm-3.679-2.355a.2.2,0,0,0-.217.224v3.665a.194.194,0,0,0,.217.217h4.008c.86,0,1.152-.4,1.152-1.017v-.336a.813.813,0,0,0-.427-.763.825.825,0,0,0,.389-.733v-.284c0-.651-.337-.972-1.242-.972Zm-2.3,3.283h-2.52c-.306,0-.419-.119-.419-.389v-.157c0-.239.112-.366.419-.366h2.737v.658C-464.589,241.488-464.648,241.555-464.805,241.555Zm-3.725-3.283a.119.119,0,0,0-.134.134v.628c0,.1.045.135.134.135h3.126c.651,0,.815.187.815.665v.142h-3.043c-.883,0-1.152.351-1.152.979v.36c0,.74.269,1.062,1.152,1.062h3.56c.433,0,.553-.112.553-.6v-1.99c0-1.084-.433-1.518-1.78-1.518Zm-6.349,0a.119.119,0,0,0-.134.134v.628c0,.1.045.135.134.135h2.206v3.043c0,.112.06.165.172.165h.733a.144.144,0,0,0,.165-.165V239.17h2.206c.09,0,.134-.038.134-.135v-.628a.119.119,0,0,0-.134-.134Zm-4.15-1.129c-1.511,0-2.094.538-2.094,1.974V240.4c0,1.436.583,1.974,2.094,1.974h3.373a.144.144,0,0,0,.164-.165v-.733a.143.143,0,0,0-.164-.164h-3.328c-.77,0-.994-.232-.994-1.025V239.23c0-.793.225-1.018.994-1.018h3.328c.112,0,.164-.059.164-.172v-.733a.143.143,0,0,0-.164-.165Z" transform="translate(0 -34.251)" fill="#fefefe" fill-rule="evenodd"/>
  </g>
</svg>
