<svg xmlns="http://www.w3.org/2000/svg" viewBox="0 0 196 30"><defs><clipPath id="a"><path d="M10.348 32.157l-3.117-1.681-.14-.07-.07-.035-.14-.07-.14-.07h15.833a6.386 6.386 0 014.554 1.892c.245-.28.525-.525.806-.806a7.426 7.426 0 014.343-1.717 2.027 2.027 0 011.471.49l.105.105a19.133 19.133 0 012.557.175l-2.21 1.822a7.631 7.631 0 01-1.681 3.713c-.28.28-.56.525-.841.806a6.458 6.458 0 011.927 4.659v15.694s-3.468-6.341-4.974-9.073a11.176 11.176 0 01-1.048-2.591c-.385-1.3-.876-3.013-.876-3.013l-12.12 13.626 5.57-12.331-12.541 5.395 13.627-12.121s-1.716-.49-3.013-.841a11.176 11.176 0 01-2.592-1.051c-1.892-1.051-5.29-2.908-5.29-2.908z" transform="translate(-6.6 -29.6)"/></clipPath></defs><path d="M119.467 10.889a5.414 5.414 0 10-5.7-5.406 5.511 5.511 0 005.7 5.406zm0-6.81a1.362 1.362 0 110 2.724 1.269 1.269 0 01-1.362-1.362 1.29 1.29 0 011.362-1.364zM94.226.077a5.637 5.637 0 00-5.236 3.15 4.519 4.519 0 00-.426 1.575 5.469 5.469 0 000 1.362 5.089 5.089 0 00.426 1.575 5.637 5.637 0 005.236 3.15 5.414 5.414 0 100-10.812zm0 6.725a1.269 1.269 0 01-1.362-1.362 1.29 1.29 0 011.362-1.363 1.362 1.362 0 110 2.724z" fill="#231f20" fill-rule="evenodd"/><path d="M84.947 10.889a7.7 7.7 0 003.575-.766c0-.043 0-.043.043-.043l-.043-.085-1.49-3.533a6.049 6.049 0 01-1.7.341c-.979 0-1.532-.468-1.532-1.277s.511-1.362 1.532-1.362a6.12 6.12 0 011.617.341L88.524.93a7.117 7.117 0 00-3.577-.853 5.84 5.84 0 00-4.257 1.66 5.451 5.451 0 00-1.447 3.831 5.314 5.314 0 001.447 3.746 6.15 6.15 0 004.257 1.575zM70.521 5.568l1.149 1.4.426.511 1.788-1.915v5.068h4.384V.332h-3.49l-2.213 2.724-.894-1.149L70.392.332h-4v10.3h4.129zM143.222 10.632c2.511 0 4.682-1.617 4.682-4.129a3.031 3.031 0 00-3.15-3.363 6.556 6.556 0 00-1.83.255 2.858 2.858 0 00-.724.341V.332h-4.554v10.3zM142.2 7.993v-2a1.784 1.784 0 01.638-.17c.043 0 .043 0 .085.043.468 0 .724.383.724.979s-.255 1.064-.724 1.149h-.17a1.211 1.211 0 01-.553 0zM119.088 14.974h-10.557a22.751 22.751 0 00-2.852 8.939h-1.319V30h4.171a3.115 3.115 0 012.894-2.426 7.7 7.7 0 011.064-.085c2.086 0 3.363.553 3.661 2.469h4.21v-6.084h-1.277v-8.9zm-6.215 8.9h-2.937a10.666 10.666 0 011.447-4.129c.085-.085.128-.17.255-.3h1.234zM127.685 10.76c2.341-.3 2.937-2.554 2.937-5.789v-1.7h1.15v7.361h4.555V.332h-9.62l-.042 4.512c-.043 2.469-.426 3.065-1.192 3.065v2.723a6.773 6.773 0 001.7.17 2.25 2.25 0 00.512-.042zM104.998 5.568l1.617 1.915 1.788-1.915v5.064h4.384V.332h-3.49l-.213.255-1.958 2.469-2.214-2.724h-4v10.3h4.086zM101.465 20.721a3.569 3.569 0 001.788-3.192c0-1.617-.979-2.6-4.129-2.6H89.079v12.773h10.514c2.767 0 4.342-1.022 4.342-3.192a4.722 4.722 0 00-2.469-3.788zm-6.555-2.426a12.807 12.807 0 011.49.085c.511.085.809.255.809.638s-.255.681-.809.936a5.8 5.8 0 01-1.49.553v-2.212zm1.617 6.044h-1.66v-1.277a9.788 9.788 0 001.49-.426 7.834 7.834 0 001.064-.383 2.031 2.031 0 01.468 1.022c.001.596-.382 1.064-1.361 1.064zM73.885 18.933a3.478 3.478 0 00-.341-1.7c-.766-1.617-2.724-2.256-5.321-2.256h-9.238v12.767H65.2v-2.17a7.765 7.765 0 001.064-.3c4.895-1.4 6.64-2.98 7.279-4.384a4.647 4.647 0 00.341-1.958zm-7.662 2.724a6.258 6.258 0 01-1.064.341v-2.682a7.174 7.174 0 011.064.085c.809.085 1.064.426 1.064.979.041.425-.257.894-1.066 1.277zM154.672 6.759c-.936 0-1.49-.468-1.49-1.277a1.313 1.313 0 011.49-1.362 5.792 5.792 0 011.617.341l1.575-3.575a7.117 7.117 0 00-3.576-.851 5.31 5.31 0 00-5.661 5.448c0 3.15 2.3 5.363 5.661 5.363a7.217 7.217 0 003.618-.809l-1.532-3.618a6.7 6.7 0 01-1.702.34zM124.238 14.974a7.807 7.807 0 00-.553 1.022 27.412 27.412 0 00-2.895 11.748h4.342a14.428 14.428 0 01.341-1.66h3.788v1.66h6.215v-12.77zm5.023 4.512v3.363h-2.937a10.073 10.073 0 011.447-3.363l.043-.043c.042.043 1.446.043 1.446.043zM76.65 14.974a26.512 26.512 0 00-3.107 8.981 34.8 34.8 0 00-.341 3.788h4.342c.085-.511.213-1.064.341-1.66h3.788v1.66h6.215V14.974zm5.023 7.917h-2.937a10.665 10.665 0 011.107-2.809 2.412 2.412 0 01.341-.553.042.042 0 00.043-.043h1.447zM42.726 14.974v12.77h6.215v-8.258h2.554v8.258h6.215v-12.77zM59.705 10.889a5.414 5.414 0 10-5.7-5.406 5.511 5.511 0 005.7 5.406zm0-6.81a1.362 1.362 0 010 2.724 1.269 1.269 0 01-1.362-1.362 1.244 1.244 0 011.362-1.364zM47.238 6.546c1.617.043 2.256 1.362 2.426 4.044h4.257c-.085-1.873-.766-4.852-2.511-5.619 1.32-.809 2.043-2.469 2.171-4.682h-4.258c-.128 2.639-.979 3.278-2.086 3.278V.289h-4.554v10.3h4.554V6.546z" fill="#231f20" fill-rule="evenodd"/><path d="M169.741 9.568c-.255-1.788-.937-3.916-2.384-4.6 1.277-.809 2.043-2.469 2.171-4.682h-4.3c-.128 2.639-.936 3.278-2.086 3.278V.289h-4.511v10.3h4.555V6.546c1.66.043 2.256 1.362 2.426 4.044h4.3zM188.214 10.632c.255-1.362.6-2.639 1.447-3.107a1.47 1.47 0 01.766-.213v3.32h4.555V.332h-6.938c-2.128 0-3.405 1.064-3.405 2.937a2.622 2.622 0 001.745 2.682 6.879 6.879 0 00-2.256 3.916c-.043.17-.128.724-.128.724h4.214zm2.213-7.917v2.257c-.3 0-1.575 0-1.575-1.107.001-1.192 1.277-1.149 1.575-1.149zM179.573.332h-5.235l-3.533 9.237-.383 1.022h3.7l.724-2.043h3.192l.724 2.043h4.6l-.255-.724zm-3.916 6l.809-2.426.809 2.426z"/><g><path d="M3.748 2.557L.631.876l-.14-.07-.07-.035-.14-.07-.14-.07h15.833a6.386 6.386 0 014.554 1.892c.245-.28.525-.525.806-.806A7.426 7.426 0 0125.677 0a2.027 2.027 0 011.471.49l.105.105A19.133 19.133 0 0129.81.77L27.6 2.592a7.631 7.631 0 01-1.681 3.713c-.28.28-.56.525-.841.806a6.458 6.458 0 011.927 4.659v15.694s-3.468-6.341-4.974-9.073a11.176 11.176 0 01-1.048-2.591c-.385-1.3-.876-3.013-.876-3.013L7.987 26.413l5.57-12.331-12.541 5.395L14.643 7.356s-1.716-.49-3.013-.841a11.176 11.176 0 01-2.592-1.051c-1.892-1.051-5.29-2.908-5.29-2.908z" fill="#b91d00" fill-rule="evenodd"/><g clip-path="url(#a)"><path d="M22.034 6.375a13.106 13.106 0 1125.607 5.114 8.339 8.339 0 00-5.78-2.312h-.245a13.116 13.116 0 00-19.582-2.802z" fill="#921000" fill-rule="evenodd"/></g><g clip-path="url(#a)"><path d="M17.515 15.448a6.75 6.75 0 00-.035.841 13.143 13.143 0 0011.35 13 7.927 7.927 0 004.659 1.471 8.068 8.068 0 007.426-4.939c.105 0 .245.035.35.035a13.1 13.1 0 01-25.712-3.508 12.9 12.9 0 011.962-6.9z" fill="#d70" fill-rule="evenodd"/></g><g clip-path="url(#a)"><path d="M18.111-4.974a13.165 13.165 0 01-2.8 17.55 13.114 13.114 0 00-7.114-9.213 13.1 13.1 0 009.914-8.337z" fill="#9f1400" fill-rule="evenodd"/></g><g clip-path="url(#a)"><path d="M-5.079-2.277A13.273 13.273 0 00.035 2.242 13.1 13.1 0 00-5.64 4.799a14.6 14.6 0 01-.245-2.487 13.02 13.02 0 01.806-4.589z" fill="#6b0200" fill-rule="evenodd"/></g><g clip-path="url(#a)"><path d="M22.034 6.376c-.035.455-.07.911-.07 1.4a12.812 12.812 0 00.385 3.083 13.1 13.1 0 00-4.8 4.589 12.834 12.834 0 014.485-9.072z" fill="#e96f00" fill-rule="evenodd"/></g><g clip-path="url(#a)"><path d="M22.314 10.895a12.812 12.812 0 01-.385-3.083c0-.455.035-.946.07-1.4a13.077 13.077 0 0119.547 2.8 8.331 8.331 0 00-5.5 2.277l-.07.07a13.084 13.084 0 00-7.391-2.277 12.48 12.48 0 00-6.27 1.611z" fill="#dd6200" fill-rule="evenodd"/></g><g clip-path="url(#a)"><path d="M22.314 10.894a13.206 13.206 0 004.589 7.181 7.927 7.927 0 00-1.471 4.659 8.031 8.031 0 003.4 6.586 13.09 13.09 0 01-11.35-13 6.751 6.751 0 01.035-.841 13.1 13.1 0 014.8-4.589z" fill="#f8c100" fill-rule="evenodd"/></g><g clip-path="url(#a)"><path d="M22.314 10.894a12.947 12.947 0 016.341-1.646 13.085 13.085 0 017.391 2.277l-.315.315a1.372 1.372 0 00-.28.35c-.035.07-.105.105-.14.175l-.07.105-.035.07v.035c-.035.07-.07.105-.105.175v.035l-.07.07-.035.07v.035c-.035.07-.07.105-.105.175v.035l-.035.07-.07.07v.038c-.035.07-.07.105-.105.175v.07l-.035.07-.07.105v.035c-.035.07-.07.105-.105.175v.07l-.035.07-.07.105a.5.5 0 00-.07.21v.07a.5.5 0 00-.07.21h-1.543c-.07 0-.14.035-.21.035h-.035l-.14.035h-.105l-.07.035h-.209l-.35.035h-.14l-.175.035c-.07.035-.14.035-.21.07h-.035l-.035.035-.105.035-.035.035h-.07l-.07.035-.07.035-.035.035h-.07l-.105.035-.035.035a.5.5 0 01-.21.07l-.035.035-.105.07h-.07l-.04.035-.07.035-.105.07h-.035l-.035.035-.035.035-.07.035-.035.035h-.07l-.14.07c-.07.035-.105.07-.175.105l-.035.035-.07.07-.035.035-.035.035-.105.035-.07.035-.07.035-.035.035-.035.035-.035.035-.105.07c-.07.035-.105.105-.175.14l-.035.035-.105.105h-.035v.035l-.035.035-.07.07-.035.035-.035.035-.035.035-.035.035-.07.07h-.035l-.035.035-.14.14a.615.615 0 00-.14.175l-.035.035-.07.07-.035.035-.035.035-.035.035-.035.07-.07.07v.035l-.035.035-.07.105-.035.035c-.035.07-.105.105-.14.175a13.116 13.116 0 01-4.59-7.144z" fill="#f4b400" fill-rule="evenodd"/></g><g clip-path="url(#a)"><path d="M-5.079-2.277a13.125 13.125 0 0123.225-2.7A13.212 13.212 0 018.197 3.36a12.9 12.9 0 00-5.815-1.328A13.388 13.388 0 000 2.242a13.724 13.724 0 01-5.079-4.519z" fill="#dd6200" fill-rule="evenodd"/></g><g clip-path="url(#a)"><path d="M-5.674 4.764A13.186 13.186 0 007.217 15.378a13.2 13.2 0 008.127-2.8 12.846 12.846 0 01.28 2.627A13.156 13.156 0 012.453 28.374a13.156 13.156 0 01-13.171-13.171A13.068 13.068 0 01-5.674 4.764z" fill="#57239f" fill-rule="evenodd"/></g><g clip-path="url(#a)"><path d="M6.971 27.534a13.309 13.309 0 01-4.589.806 13.156 13.156 0 01-13.171-13.176 13.111 13.111 0 015.114-10.4A13.186 13.186 0 007.217 15.378a13.14 13.14 0 005.5-1.191l-.841 2.137-6.726 7.111 1.822 4.1z" fill="#0c77e2" fill-rule="evenodd"/></g><g clip-path="url(#a)"><path d="M.035 2.207a12.86 12.86 0 005.78 1.331 13.387 13.387 0 002.382-.21c-.105-.07-.21-.105-.315-.175a13.134 13.134 0 017.426 9.354 13.122 13.122 0 01-8.127 2.8A13.046 13.046 0 01-5.675 4.764a13.425 13.425 0 015.71-2.557z" fill="#b91d00" fill-rule="evenodd"/></g><g clip-path="url(#a)"><path d="M2.662 1.997h.7l.245.035h.035l.245.035h.07l.245.035h.035l.21.035h.07l.245.035h.07l.21.035h.07l.245.035h.07l.175.035h.07l.21.07.07.035.175.035.07.035.21.07.105.035.14.035.07.035.07.035.14.035.105.035.105.035.105.035.105.035.07.035.14.07h.035l.14.07.175.07a1.42 1.42 0 01.315.175A13.322 13.322 0 01.07 2.137h.035l.21-.035h.07l.21-.035H.7l.14.035h1.542l.28-.105z" fill="#f19700" fill-rule="evenodd"/></g><g clip-path="url(#a)"><path d="M28.83 29.285a14.259 14.259 0 001.752.105 12.947 12.947 0 009.173-3.783 6.132 6.132 0 001.156.21 8.123 8.123 0 01-7.426 4.939 7.927 7.927 0 01-4.659-1.471c-.07-.07-.14-.105-.175-.14l.175.14z" fill="#da1600" fill-rule="evenodd"/></g><g clip-path="url(#a)"><path d="M26.903 18.041a12.958 12.958 0 007.286 2.8l.035.105a8.287 8.287 0 005.57 4.659 13.009 13.009 0 01-9.178 3.783 14.259 14.259 0 01-1.752-.105l-.175-.14-.035-.035-.14-.105-.035-.035-.14-.105-.035-.035-.14-.105-.035-.035-.175-.14-.14-.14-.035-.035-.105-.105-.035-.035-.105-.105-.035-.035-.14-.14v-.035l-.14-.175-.035-.035-.105-.14-.035-.07-.105-.14-.035-.07-.105-.14-.035-.035-.106-.172-.105-.175-.035-.07-.07-.14-.035-.07-.07-.14-.035-.07-.07-.175-.035-.035-.07-.21-.035-.035-.07-.14-.035-.07-.07-.14-.035-.07-.035-.14-.035-.07-.07-.21-.07-.21-.035-.07-.035-.14-.035-.07-.035-.14v-.07l-.035-.175v-.07l-.035-.21v-.07l-.035-.175v-.771a8.017 8.017 0 011.47-4.769z" fill="#f19700" fill-rule="evenodd"/></g><g clip-path="url(#a)"><path d="M33.944 14.818a8.762 8.762 0 00-.455 2.732v.876a.444.444 0 00.035.21v.035l.035.14v.35l.035.07v.105l.035.14v.035c0 .07.035.14.035.21v.035l.035.14v.105l.035.07.035.07v.07l.035.07.035.105v.032l.21.525.035.07a13.057 13.057 0 01-7.286-2.795l.14-.175.035-.035.105-.14.035-.035.105-.105.035-.035.105-.14.04-.035.14-.175.14-.14.035-.035.105-.105.07-.07.105-.105.07-.035.14-.105.035-.035.175-.14.035-.035.14-.105.07-.035.105-.07.07-.035.14-.07.07-.035.175-.105h.035l.175-.105.07-.035.14-.07.07-.035.14-.07.07-.035.14-.07.035-.035.21-.07.07-.035.14-.07.07-.035.14-.035.07-.035.14-.035.07-.035.21-.07.21-.07.07-.035.14-.035.065-.04.14-.035h.07l.175-.035h.07l.21-.035h.07l.175-.035h1.226l.105-.07z" fill="#da1600" fill-rule="evenodd"/></g></g></svg>