<svg width="288" height="75" viewBox="0 0 288 75" fill="none" xmlns="http://www.w3.org/2000/svg">
<path fill-rule="evenodd" clip-rule="evenodd" d="M19.4629 1.31112C21.5424 4.5766 24.3062 8.92978 27.3706 13.7754L0 71.1824L1.20566 71.667C3.8339 72.7236 12.6119 74.6667 27.7352 74.6667C37.4114 74.6667 46.8071 73.8713 53.7329 73.0409V73.0686C54.0218 73.0686 54.7356 73.0703 55.6903 73.0727L55.714 73.0728L55.7395 73.0729H55.74H55.7413C59.2013 73.0816 65.7272 73.0979 66.7854 73.0681C76.784 72.7858 82.1871 72.2773 85.8659 71.6051L87.2469 71.3527L86.805 70.0203C86.3878 68.7625 84.2503 64.1994 78.9346 55.2957C77.582 53.0301 75.7259 50.0007 73.6123 46.5896L73.6291 46.5253L73.5616 46.5078C69.7936 40.4274 65.217 33.148 61.2189 26.8222L62.2275 24.7068L64.3328 26.8122L66.0588 25.0862L63.3419 22.3694L63.8037 21.401L65.9603 23.5576L67.6863 21.8317L64.9181 19.0635L65.6858 17.4534L63.4825 16.4029L59.677 24.3845C57.693 21.25 55.9122 18.4461 54.5281 16.2726L52.4692 17.5837C54.0405 20.0511 56.1238 23.3324 58.4358 26.9878L49.8181 45.0626C44.4402 36.2901 36.6954 23.9592 30.1537 13.6098L31.9349 9.874L35.2478 13.1869L36.9738 11.461L33.0494 7.53653L33.7734 6.01784L36.8744 9.11875L38.6003 7.39279L34.8879 3.68037L36.0797 1.1808L33.8764 0.130316L28.6119 11.1719C25.8731 6.84397 23.4132 2.9702 21.5217 0L19.4629 1.31112ZM70.9798 46.976C68.9589 54.2242 65.0406 63.5101 62.8739 68.2549C61.5733 65.4062 58.7036 59.8522 53.4088 50.9835C52.7935 49.9528 52.0983 48.801 51.3367 47.549L52.7999 44.4801C56.3625 44.9746 63.1703 45.4019 69.195 44.1068C69.804 45.0837 70.4005 46.0425 70.9798 46.976ZM3.35682 69.8134L19.3595 36.2495C22.1969 36.6601 26.7873 37.0523 31.7748 36.8727C28.2001 49.0811 20.961 65.0175 17.6527 71.7143L17.9333 71.853L17.9032 71.9218C10.5883 71.445 5.76993 70.5048 3.35682 69.8134ZM39.8048 33.5435C32.779 34.9367 24.8999 34.5073 20.4622 33.9367L22.4832 29.6978C25.8918 30.1799 31.8195 30.5135 37.083 29.195C37.9995 30.6568 38.9096 32.1107 39.8048 33.5435ZM35.7111 27.0084C31.4115 27.9327 26.6758 27.7499 23.588 27.3807L28.912 16.2141C31.1065 19.6882 33.4159 23.3532 35.7111 27.0084ZM34.3566 36.728C36.6389 36.5525 38.9546 36.2426 41.1811 35.7484C45.2446 42.2657 48.8981 48.1898 51.313 52.2347C56.8793 61.5582 59.6795 67.0815 60.8 69.5901C56.7458 70.2568 49.6196 71.1924 41.2891 71.751C39.6407 68.457 35.7445 60.8839 33.1273 56.522C31.8409 54.3779 31.0525 52.88 30.5416 51.8749C30.44 51.675 30.3452 51.4862 30.2583 51.3132L30.2581 51.3128L30.2579 51.3124L30.2572 51.3111L30.2572 51.3111L30.2572 51.311L30.2571 51.311L30.2571 51.311L30.2571 51.3109L30.2571 51.3109L30.2563 51.3094L30.2556 51.308C30.1318 51.0615 30.0242 50.8472 29.9358 50.6782C29.8746 50.5614 29.7997 50.4188 29.7112 50.2747C31.5074 45.6452 33.1605 40.9519 34.3566 36.728ZM53.9054 42.1616C57.2482 42.5589 62.7844 42.8196 67.8135 41.8936C67.236 40.9697 66.651 40.0352 66.0622 39.0959C62.1451 40.0331 57.807 39.8158 55.1907 39.4656L53.9054 42.1616ZM56.2993 37.1405L59.9771 29.4267C61.5029 31.8428 63.0956 34.3705 64.6824 36.897C61.7213 37.4677 58.5348 37.3774 56.2993 37.1405ZM71.3459 53.8489C71.832 52.4682 72.2908 51.0943 72.7034 49.7606C74.3258 52.3898 75.7478 54.7195 76.8388 56.5469C80.8622 63.286 82.9882 67.4165 83.9264 69.4523C82.9392 69.6 81.8217 69.739 80.5301 69.8678C79.1347 67.0988 76.4251 61.8614 74.5571 58.743C73.5461 57.0553 72.7676 55.8493 72.2009 55.023C71.852 54.5143 71.5663 54.124 71.3459 53.8489Z" fill="#CC0000"/>
<path d="M117.037 40.2266L108.247 14.044H113.858L120.254 34.1672L126.612 14.044H132.26L123.433 40.2266H117.037Z" fill="black"/>
<path d="M136.222 19.2806C135.424 19.2806 134.726 18.9938 134.128 18.4203C133.554 17.8218 133.267 17.1236 133.267 16.3257C133.267 15.5277 133.554 14.8295 134.128 14.2311C134.726 13.6326 135.424 13.3334 136.222 13.3334C137.045 13.3334 137.743 13.6326 138.317 14.2311C138.915 14.8295 139.215 15.5277 139.215 16.3257C139.215 17.1236 138.915 17.8218 138.317 18.4203C137.743 18.9938 137.045 19.2806 136.222 19.2806ZM133.829 40.2266V21.5248H138.654V40.2266H133.829Z" fill="black"/>
<path d="M157.395 21.5248H162.108V39.3289C162.108 42.2214 161.148 44.4283 159.228 45.9493C157.333 47.4704 155.039 48.231 152.346 48.231C150.326 48.231 148.543 47.8445 146.997 47.0715C145.476 46.2984 144.304 45.1639 143.481 43.6677L147.596 41.3113C148.543 43.0568 150.177 43.9296 152.496 43.9296C154.017 43.9296 155.214 43.5306 156.086 42.7326C156.959 41.9347 157.395 40.8001 157.395 39.3289V37.3091C155.974 39.2042 153.979 40.1518 151.411 40.1518C148.768 40.1518 146.548 39.2292 144.753 37.3839C142.983 35.5137 142.097 33.2446 142.097 30.5765C142.097 27.9333 142.995 25.6766 144.79 23.8064C146.586 21.9362 148.793 21.0011 151.411 21.0011C153.979 21.0011 155.974 21.9487 157.395 23.8438V21.5248ZM148.381 34.2794C149.379 35.227 150.638 35.7007 152.159 35.7007C153.68 35.7007 154.927 35.227 155.899 34.2794C156.897 33.3069 157.395 32.0726 157.395 30.5765C157.395 29.1052 156.897 27.8959 155.899 26.9483C154.927 25.9758 153.68 25.4896 152.159 25.4896C150.638 25.4896 149.379 25.9758 148.381 26.9483C147.409 27.8959 146.922 29.1052 146.922 30.5765C146.922 32.0726 147.409 33.3069 148.381 34.2794Z" fill="black"/>
<path d="M173.179 40.2266L164.389 14.044H170L176.396 34.1672L182.754 14.044H188.402L179.575 40.2266H173.179Z" fill="black"/>
<path d="M202.686 21.5248H207.511V40.2266H202.686V38.0198C201.24 39.8401 199.208 40.7502 196.59 40.7502C194.096 40.7502 191.951 39.8027 190.156 37.9076C188.386 35.9875 187.5 33.6435 187.5 30.8757C187.5 28.1078 188.386 25.7763 190.156 23.8812C191.951 21.9611 194.096 21.0011 196.59 21.0011C199.208 21.0011 201.24 21.9113 202.686 23.7316V21.5248ZM193.784 34.6908C194.757 35.6633 195.991 36.1496 197.487 36.1496C198.983 36.1496 200.218 35.6633 201.19 34.6908C202.188 33.6934 202.686 32.4217 202.686 30.8757C202.686 29.3297 202.188 28.0704 201.19 27.0979C200.218 26.1005 198.983 25.6018 197.487 25.6018C195.991 25.6018 194.757 26.1005 193.784 27.0979C192.812 28.0704 192.325 29.3297 192.325 30.8757C192.325 32.4217 192.812 33.6934 193.784 34.6908Z" fill="black"/>
<path d="M232.571 21.0011C234.715 21.0011 236.423 21.6993 237.695 23.0957C238.992 24.4921 239.64 26.3623 239.64 28.7063V40.2266H234.815V29.0429C234.815 27.9208 234.541 27.048 233.992 26.4246C233.444 25.8013 232.671 25.4896 231.673 25.4896C230.576 25.4896 229.716 25.8511 229.092 26.5743C228.494 27.2974 228.195 28.3447 228.195 29.7162V40.2266H223.37V29.0429C223.37 27.9208 223.095 27.048 222.547 26.4246C221.998 25.8013 221.225 25.4896 220.228 25.4896C219.155 25.4896 218.295 25.8511 217.647 26.5743C217.023 27.2974 216.712 28.3447 216.712 29.7162V40.2266H211.887V21.5248H216.712V23.5072C217.834 21.8365 219.567 21.0011 221.911 21.0011C224.205 21.0011 225.901 21.8988 226.998 23.6942C228.245 21.8988 230.102 21.0011 232.571 21.0011Z" fill="black"/>
<path d="M248.788 39.7777C248.164 40.4011 247.416 40.7128 246.544 40.7128C245.671 40.7128 244.923 40.4011 244.299 39.7777C243.676 39.1544 243.364 38.4063 243.364 37.5335C243.364 36.6608 243.676 35.9127 244.299 35.2893C244.923 34.6659 245.671 34.3542 246.544 34.3542C247.416 34.3542 248.164 34.6659 248.788 35.2893C249.411 35.9127 249.723 36.6608 249.723 37.5335C249.723 38.4063 249.411 39.1544 248.788 39.7777Z" fill="black"/>
<path d="M258.572 24.7415C259.021 23.5446 259.756 22.6469 260.779 22.0484C261.826 21.45 262.985 21.1507 264.257 21.1507V26.5369C262.786 26.3623 261.464 26.6615 260.292 27.4345C259.145 28.2076 258.572 29.4917 258.572 31.2871V40.2266H253.747V21.5248H258.572V24.7415Z" fill="black"/>
<path d="M279.422 21.5248H284.247V40.2266H279.422V38.132C278.25 39.8775 276.393 40.7502 273.849 40.7502C271.804 40.7502 270.109 40.0645 268.762 38.693C267.441 37.3216 266.78 35.4265 266.78 33.0077V21.5248H271.605V32.4092C271.605 33.656 271.941 34.616 272.615 35.2893C273.288 35.9376 274.186 36.2618 275.308 36.2618C276.555 36.2618 277.552 35.8753 278.3 35.1023C279.048 34.3293 279.422 33.1698 279.422 31.6238V21.5248Z" fill="black"/>
<path d="M119.236 63.416H120.136V66.608H118.48V65H113.836V66.608H112.18V63.416H112.996C113.46 62.768 113.692 61.82 113.692 60.572V56.6H119.236V63.416ZM114.772 63.416H117.58V58.148H115.348V60.596C115.348 61.812 115.156 62.752 114.772 63.416ZM133.94 63.908C133.092 64.748 132.06 65.168 130.844 65.168C129.628 65.168 128.596 64.748 127.748 63.908C126.908 63.06 126.488 62.024 126.488 60.8C126.488 59.576 126.908 58.544 127.748 57.704C128.596 56.856 129.628 56.432 130.844 56.432C132.06 56.432 133.092 56.856 133.94 57.704C134.788 58.544 135.212 59.576 135.212 60.8C135.212 62.024 134.788 63.06 133.94 63.908ZM128.912 62.78C129.432 63.292 130.076 63.548 130.844 63.548C131.612 63.548 132.256 63.292 132.776 62.78C133.296 62.26 133.556 61.6 133.556 60.8C133.556 60 133.296 59.34 132.776 58.82C132.256 58.3 131.612 58.04 130.844 58.04C130.076 58.04 129.432 58.3 128.912 58.82C128.392 59.34 128.132 60 128.132 60.8C128.132 61.6 128.392 62.26 128.912 62.78ZM150.356 56.6V65H148.712V59.552L146.348 63.452H146.156L143.792 59.564V65H142.136V56.6H143.84L146.252 60.572L148.652 56.6H150.356ZM163.081 65L162.577 63.488H159.229L158.725 65H156.937L159.877 56.6H161.929L164.881 65H163.081ZM159.757 61.94H162.061L160.909 58.508L159.757 61.94ZM186.493 56.6V65H184.837V58.184H181.873V65H180.217V56.6H186.493ZM200.885 63.908C200.037 64.748 199.005 65.168 197.789 65.168C196.573 65.168 195.541 64.748 194.693 63.908C193.853 63.06 193.433 62.024 193.433 60.8C193.433 59.576 193.853 58.544 194.693 57.704C195.541 56.856 196.573 56.432 197.789 56.432C199.005 56.432 200.037 56.856 200.885 57.704C201.733 58.544 202.157 59.576 202.157 60.8C202.157 62.024 201.733 63.06 200.885 63.908ZM195.857 62.78C196.377 63.292 197.021 63.548 197.789 63.548C198.557 63.548 199.201 63.292 199.721 62.78C200.241 62.26 200.501 61.6 200.501 60.8C200.501 60 200.241 59.34 199.721 58.82C199.201 58.3 198.557 58.04 197.789 58.04C197.021 58.04 196.377 58.3 195.857 58.82C195.337 59.34 195.077 60 195.077 60.8C195.077 61.6 195.337 62.26 195.857 62.78ZM215.161 63.416H216.061V66.608H214.405V65H209.761V66.608H208.105V63.416H208.921C209.385 62.768 209.617 61.82 209.617 60.572V56.6H215.161V63.416ZM210.697 63.416H213.505V58.148H211.273V60.596C211.273 61.812 211.081 62.752 210.697 63.416ZM238.25 65H236.342L233.342 61.064V65H231.686V56.6H233.342V60.308L236.222 56.6H238.13L235.022 60.68L238.25 65ZM244.275 65V63.464C244.771 63.536 245.143 63.436 245.391 63.164C245.639 62.892 245.763 62.36 245.763 61.568V56.6H251.475V65H249.831V58.184H247.407V61.52C247.407 62.248 247.319 62.86 247.143 63.356C246.967 63.852 246.723 64.22 246.411 64.46C246.107 64.7 245.779 64.86 245.427 64.94C245.083 65.02 244.699 65.04 244.275 65ZM265.92 56.432C267.136 56.432 268.168 56.856 269.016 57.704C269.864 58.544 270.288 59.576 270.288 60.8C270.288 62.016 269.864 63.048 269.016 63.896C268.168 64.744 267.136 65.168 265.92 65.168C264.832 65.168 263.888 64.82 263.088 64.124C262.296 63.428 261.82 62.544 261.66 61.472H260.448V65H258.792V56.6H260.448V59.888H261.696C261.904 58.88 262.396 58.052 263.172 57.404C263.956 56.756 264.872 56.432 265.92 56.432ZM263.988 62.78C264.508 63.292 265.152 63.548 265.92 63.548C266.688 63.548 267.332 63.292 267.852 62.78C268.372 62.26 268.632 61.6 268.632 60.8C268.632 60 268.372 59.34 267.852 58.82C267.332 58.3 266.688 58.04 265.92 58.04C265.144 58.04 264.496 58.296 263.976 58.808C263.464 59.32 263.208 59.984 263.208 60.8C263.208 61.6 263.468 62.26 263.988 62.78ZM281.46 56.6H283.116V65H281.46V61.928C280.948 62.144 280.4 62.252 279.816 62.252C278.968 62.252 278.268 62.016 277.716 61.544C277.172 61.064 276.9 60.416 276.9 59.6V56.6H278.556V59.384C278.556 59.784 278.672 60.1 278.904 60.332C279.144 60.556 279.46 60.668 279.852 60.668C280.436 60.668 280.972 60.552 281.46 60.32V56.6Z" fill="black"/>
</svg>
