<svg width="530" height="300" fill="none" xmlns="http://www.w3.org/2000/svg"><rect width="530" height="300" rx="6" fill="#F9F9F9"/><path d="M243.414 259.264c-29.614-8.045-49.663-22.134-53.983-57.653-2.913-23.949-.817-36.99 14.726-65.361 3.93-7.173 16.512-19.5 24.893-41.705s7.45-58.446 31.862-58.846c22.772-.374 35.851 8.712 35.843 33.138-.013 36.827 5.896 28.406 23.893 56.558 10.206 15.964 18.556 33.876 20.847 57.999 2.163 22.769-2.648 43.935-17.868 59.925-23.673 24.872-50.6 23.99-80.213 15.945z" fill="#F1F1F1"/><path d="M230.261 190.082c2.694-25.168 26.715-31.879 38.389-32.089 11.011-.198 31.788 3.398 32.327 32.089.539 28.691-20.206 37.122-37.042 37.122-18.185 0-36.368-11.954-33.674-37.122z" fill="#E3E3E3"/><path d="M277.37 126.484s-2.012 7.56-9.927 7.9c-7.916.34-10.56-7.021-10.56-7.021" stroke="#B5B5B5" stroke-width="2" stroke-linecap="round" stroke-linejoin="round"/><path d="M241.717 112.439a1.001 1.001 0 0 0-.878 1.797l.878-1.797zm16.276-2.744a1 1 0 0 0-1.86-.736l1.86.736zm-16.715 3.643-.439.898.001.001.001.001.005.002.016.008.057.026a19.667 19.667 0 0 0 .952.408c.631.25 1.519.568 2.55.839 2.023.531 4.758.924 7.174.091l-.652-1.891c-1.847.637-4.107.366-6.014-.135a20.295 20.295 0 0 1-3.162-1.123l-.041-.019-.009-.004-.001-.001-.438.899zm10.317 2.274c2.358-.813 3.953-2.288 4.952-3.543a11.5 11.5 0 0 0 1.088-1.635c.117-.214.203-.391.262-.518l.067-.152.019-.045a.077.077 0 0 0 .006-.015l.002-.005.001-.002v-.001c.001 0 .001-.001-.929-.369l-.93-.368.001-.001v-.002l-.001.002-.008.021-.044.098a6.587 6.587 0 0 1-.202.4 9.444 9.444 0 0 1-.897 1.346c-.833 1.047-2.135 2.242-4.039 2.898l.652 1.891z" fill="#B5B5B5"/><path d="M242.72 117.778c.085-.64.282-1.22.496-1.806.174-.474.14-1.005.609-1.268M247.063 118.966c.009-.936.063-1.843.102-2.763.013-.316.068-.777-.029-1.058M251.517 118.687c-.15-.924-.508-2.067-.382-3.012M256.129 116.341c-.775-.707-1.53-1.432-2.329-2.117-.136-.117-.245-.212-.404-.284M260.133 112.387c-1.099-.475-2.161-.897-3.339-1.054" stroke="#B5B5B5" stroke-width="2" stroke-linecap="round" stroke-linejoin="round"/><path d="M271.149 109.704a1 1 0 1 0-1.18 1.614l1.18-1.614zm16.503.169a1 1 0 1 0-1.701-1.052l1.701 1.052zm-17.093.638-.59.808h.001l.001.001.005.003.014.011.051.036.186.129a22.012 22.012 0 0 0 3.042 1.715c1.898.88 4.521 1.75 7.045 1.356l-.309-1.977c-1.93.301-4.107-.364-5.896-1.193a20.516 20.516 0 0 1-2.758-1.555 15.35 15.35 0 0 1-.156-.108l-.038-.027-.007-.006h-.002c0-.001 0-.001 0 0h.001l-.59.807zm9.755 4.059c2.464-.385 4.294-1.556 5.498-2.615a11.523 11.523 0 0 0 1.358-1.418 8.77 8.77 0 0 0 .442-.601l.027-.041.008-.013.003-.005.001-.002.001-.001-.85-.527c-.851-.526-.85-.526-.85-.527l.001-.001v-.001l-.001.002-.012.018a6.912 6.912 0 0 1-.33.447 9.42 9.42 0 0 1-1.12 1.168c-1.004.883-2.495 1.83-4.485 2.14l.309 1.977z" fill="#B5B5B5"/><path d="M271.201 115.127c.196-.615.492-1.151.806-1.69.254-.436.314-.965.822-1.142M275.268 117.063c.173-.919.386-1.803.586-2.702.069-.309.204-.753.158-1.047M279.699 117.571c.015-.936-.136-2.124.154-3.032M284.654 116.078c-.639-.832-1.254-1.679-1.92-2.494-.114-.139-.204-.252-.347-.351M288.51 112.695c-.999-.661-1.969-1.264-3.101-1.626" stroke="#B5B5B5" stroke-width="2" stroke-linecap="round" stroke-linejoin="round"/></svg>