<svg width="10" height="15" xmlns="http://www.w3.org/2000/svg" viewBox="-0.5 0 9.2 14.5"><path fill="#FFF" d="M6.5 6.1c-.6.7-1.5 1.1-2.4 1.1s-1.8-.4-2.4-1.1c-.6-.7-1-1.5-1-2.5s.4-1.9 1-2.5S3.2 0 4.1 0s1.8.4 2.4 1.1c.6.7 1 1.5 1 2.5s-.4 1.9-1 2.5zM4.1 2c-.4 0-.8.1-1.1.4-.3.3-.5.7-.5 1.2s.2.8.5 1.1c.3.3.7.5 1.1.5s.8-.2 1.1-.5c.3-.3.4-.7.4-1.1s-.1-.9-.4-1.2c-.3-.3-.7-.4-1.1-.4zm3.6 5.2l1 1.4c.1.1 0 .2 0 .2-.8.7-1.8 1.2-2.8 1.5l1.9 3.9c.1.1 0 .2-.1.2H5.5c-.1 0-.1 0-.2-.1L4 11.1l-1.3 3.2c0 .1-.1.1-.2.1H.6c-.1 0-.2-.1-.1-.2l1.9-3.9c-1-.3-2-.7-2.8-1.5-.1-.1-.1-.2 0-.2l1-1.4c.1-.1.2-.1.2 0 .9.8 2 1.4 3.3 1.4S6.5 8 7.4 7.2c.1-.1.2-.1.3 0z"/></svg>