<svg viewBox="0 0 291.2 89" xmlns="http://www.w3.org/2000/svg" class="Logo_logo__3MRs2"><title>salon secret logo</title><path d="M132 63.1h31.1M132.1 5.8h31" fill="none" stroke="#8d692e" stroke-miterlimit="10" stroke-width="1.643"></path><g fill="#8d692e"><path d="M152.5 26.3c-1.1-1.9-2.4-3-4.7-3-2.4 0-4.5 1.7-4.5 4.3 0 2.4 2.4 3.5 4.3 4.3l1.8.8c3.6 1.6 6.6 3.3 6.6 7.7 0 4.8-3.9 8.5-8.6 8.5-4.4 0-7.7-2.8-8.5-7.1l3-.8c.4 2.8 2.5 5.1 5.5 5.1 2.9 0 5.6-2.3 5.6-5.3 0-3.2-2.5-4.3-5.1-5.5l-1.7-.7c-3.2-1.5-6-3.1-6-7 0-4.3 3.6-7 7.7-7 3.1 0 5.6 1.6 7.1 4.3zM14.5 30.1c-.7-1.1-1.4-1.8-2.8-1.8-1.5 0-2.7 1.1-2.7 2.6 0 1.4 1.5 2.1 2.6 2.6l1.1.5c2.1.9 4 2 4 4.6 0 2.9-2.3 5.1-5.2 5.1-2.7 0-4.6-1.7-5.2-4.3L8 39c.2 1.7 1.5 3.1 3.3 3.1s3.4-1.4 3.4-3.2c0-1.9-1.5-2.6-3-3.3l-1-.4c-1.9-.9-3.6-1.9-3.6-4.2 0-2.6 2.2-4.2 4.6-4.2 1.8 0 3.4.9 4.3 2.6zM34 38.8l-2 4.7h-2l7.6-17.3L45 43.5h-2l-2-4.7zm3.5-8.4L34.7 37h5.6zM60.9 41.7h4.6v1.7h-6.4V26.9h1.8zM96 35.2c0 4.8-3.9 8.5-8.6 8.5s-8.6-3.8-8.6-8.5 3.9-8.6 8.6-8.6 8.6 3.9 8.6 8.6zm-15.4 0c0 3.7 3 6.8 6.8 6.8s6.8-3.1 6.8-6.8-3-6.8-6.8-6.8-6.8 3-6.8 6.8zM110.8 26.2l12.9 13.5V26.9h1.8v17.3l-12.9-13.5v12.7h-1.8zM172.1 26.9h8.6v1.7H174v4.9h6.5v1.7H174v6.5h6.7v1.7h-8.6zM209.1 30.5c-1.3-1.4-3.1-2.2-5-2.2-3.7 0-6.7 3.2-6.7 6.8s3 6.8 6.7 6.8c1.9 0 3.7-.9 5-2.2V42c-1.4 1-3.2 1.6-4.9 1.6-4.7 0-8.6-3.8-8.6-8.5s3.9-8.6 8.6-8.6c1.8 0 3.5.5 4.9 1.6zM226.9 43.4H225V26.9h2.4c3.1 0 6 .8 6 4.6 0 2.5-1.6 4.3-4.1 4.6l5.3 7.4h-2.3l-5-7.3h-.5v7.2zm0-8.8h.6c2.1 0 4.2-.4 4.2-3 0-2.7-2-3-4.2-3h-.5v6zM249.7 26.9h8.6v1.7h-6.7v4.9h6.5v1.7h-6.5v6.5h6.7v1.7h-8.6zM280.9 43.4h-1.8V28.6h-4v-1.7h9.9v1.7h-4v14.8zM60.3 84.3h-.6v-5.2h.7c1.6 0 2.1.5 2.1 1.5 0 1.1-.8 1.5-1.8 1.5h-.4zm0-2.8h.2c.7 0 1.4-.1 1.4-.9s-.8-.9-1.4-.9h-.2zM69.4 81.7c0 1.5-1.2 2.7-2.7 2.7S64 83.2 64 81.7s1.2-2.7 2.7-2.7 2.7 1.2 2.7 2.7zm-.7 0c0-1.1-.9-2.1-2.1-2.1s-2.1 1-2.1 2.1c0 1.2.9 2.1 2.1 2.1s2.1-1 2.1-2.1zM72.8 82.8l1.5-3.8 1.5 3.8 1.5-3.7h.7l-2.2 5.4-1.5-3.8-1.5 3.8-2.2-5.4h.7zM79.6 79.1h2.8v.6h-2.1v1.5h2.1v.6h-2.1v2h2.1v.6h-2.8zM87.6 84.3h-.8l-1.5-2.2H85v2.2h-.6v-5.2h.8c.5 0 1 0 1.4.2.4.3.7.7.7 1.2 0 .7-.5 1.4-1.2 1.5zM85 81.5h.2c.7 0 1.4-.1 1.4-.9s-.8-.9-1.4-.9H85zM89.3 79.1h2.8v.6H90v1.5h2.1v.6H90v2h2.1v.6h-2.8zM94.1 79.1h1.1c1.6 0 2.9.8 2.9 2.6s-1.3 2.6-2.9 2.6h-1.1zm.6 4.6h.2c1.3 0 2.5-.5 2.5-2s-1.1-2-2.5-2h-.2zM103.1 79.1h.6c1 0 1.9.3 1.9 1.4 0 .4-.2.8-.6 1 .6.1 1 .7 1 1.3 0 1-.9 1.5-1.8 1.5H103v-5.2zm.7 2.3h.2c.6 0 1.1-.1 1.1-.9 0-.7-.5-.9-1.1-.9h-.2zm0 2.3h.5c.6 0 1.2-.2 1.2-.9s-.7-.9-1.3-.9h-.4zM107.6 79.1h.7l1.3 2.2 1.3-2.2h.7l-1.7 2.9v2.3h-.6V82zM117.1 83.7h1.6v.6h-2.2v-5.2h.6zM120.8 79.2l-.9 1.8-.4-.2.8-1.9zM128 81.7c0 1.5-1.2 2.7-2.7 2.7s-2.7-1.2-2.7-2.7 1.2-2.7 2.7-2.7 2.7 1.2 2.7 2.7zm-.6 0c0-1.1-.9-2.1-2.1-2.1s-2.1 1-2.1 2.1c0 1.2.9 2.1 2.1 2.1s2.1-1 2.1-2.1zM133.1 84.3h-.8l-1.5-2.2h-.3v2.2h-.6v-5.2h.8c.5 0 1 0 1.4.2.4.3.7.7.7 1.2 0 .7-.5 1.4-1.2 1.5zm-2.6-2.8h.2c.7 0 1.4-.1 1.4-.9s-.8-.9-1.4-.9h-.2zM134.8 79.1h2.8v.6h-2.1v1.5h2.1v.6h-2.1v2h2.1v.6h-2.8zm2.3-1.4l-1.1 1-.3-.2.9-1.1zM140.4 83l-.6 1.3h-.7l2.5-5.4 2.5 5.4h-.7l-.6-1.3zm1.2-2.7l-.9 2.1h1.8zM146.4 83.7h1.6v.6h-2.2v-5.2h.6zM155.1 80.1c-.2-.3-.4-.5-.8-.5s-.9.3-.9.7.4.6.7.7l.4.1c.7.3 1.3.7 1.3 1.6s-.7 1.6-1.7 1.6c-.8 0-1.5-.6-1.6-1.5l.7-.1c0 .6.4 1 1 1s1-.5 1-1c0-.6-.4-.8-.9-1l-.4-.2c-.6-.3-1.1-.6-1.1-1.3 0-.8.7-1.3 1.5-1.3.6 0 1.1.3 1.3.8zM158.5 83l-.6 1.3h-.7l2.5-5.4 2.5 5.4h-.7l-.6-1.3zm1.2-2.7l-.9 2.1h1.8zM164.5 83.7h1.6v.6h-2.2v-5.2h.6zM172.8 81.7c0 1.5-1.2 2.7-2.7 2.7s-2.7-1.2-2.7-2.7 1.2-2.7 2.7-2.7c1.4 0 2.7 1.2 2.7 2.7zm-.7 0c0-1.1-.9-2.1-2.1-2.1s-2.1 1-2.1 2.1c0 1.2 1 2.1 2.1 2.1 1.2 0 2.1-1 2.1-2.1zM174.6 78.8l3.9 4.1v-3.8h.6v5.4l-3.9-4.1v3.9h-.6zM183.6 80.1c-.2-.3-.4-.5-.8-.5s-.9.3-.9.7.4.6.7.7l.4.1c.7.3 1.3.7 1.3 1.6s-.7 1.6-1.7 1.6c-.8 0-1.5-.6-1.6-1.5l.7-.1c0 .6.4 1 1 1s1-.5 1-1c0-.6-.4-.8-.9-1l-.4-.2c-.6-.3-1.1-.6-1.1-1.3 0-.8.7-1.3 1.5-1.3.6 0 1.1.3 1.3.8zM192.4 83.6c-.4.5-.9.8-1.6.8-.9 0-1.6-.6-1.6-1.5 0-.7.4-1 .9-1.4l.3-.2c-.3-.3-.6-.7-.6-1.1 0-.7.5-1.1 1.2-1.1.6 0 1.2.4 1.2 1.1 0 .6-.5 1-.9 1.3l1.1 1.3.6-.7.4.4-.6.7.9 1.1h-.7zm-1.6-1.9c-.4.2-.9.6-.9 1.1s.5 1 1 1 .9-.4 1.2-.7zm.3-.9c.3-.2.6-.4.6-.8s-.3-.6-.6-.6-.6.2-.6.6c0 .3.2.5.3.6zM200.9 80.1c-.2-.3-.4-.5-.8-.5s-.9.3-.9.7.4.6.7.7l.4.1c.7.3 1.3.7 1.3 1.6s-.7 1.6-1.7 1.6c-.8 0-1.5-.6-1.6-1.5l.7-.1c0 .6.4 1 1 1s1-.5 1-1c0-.6-.4-.8-.9-1l-.4-.2c-.6-.3-1.1-.6-1.1-1.3 0-.8.7-1.3 1.5-1.3.6 0 1.1.3 1.3.8zM204.9 84.3h-.6v-4.6h-1.2v-.6h3.1v.6H205zM207.4 79.1h.7l1.3 2.2 1.3-2.2h.7l-1.7 2.9v2.3h-.6V82zM213.7 83.7h1.6v.6h-2.2v-5.2h.6zM217.6 84.3h-.6v-5.2h.6zM222.1 80.1c-.2-.3-.4-.5-.8-.5s-.9.3-.9.7.4.6.7.7l.4.1c.7.3 1.3.7 1.3 1.6s-.7 1.6-1.7 1.6c-.8 0-1.5-.6-1.6-1.5l.7-.1c0 .6.4 1 1 1s1-.5 1-1c0-.6-.4-.8-.9-1l-.4-.2c-.6-.3-1.1-.6-1.1-1.3 0-.8.7-1.3 1.5-1.3.6 0 1.1.3 1.3.8zM226.1 84.3h-.6v-4.6h-1.2v-.6h3.1v.6h-1.2zM231.4 80.1c-.2-.3-.4-.5-.8-.5s-.9.3-.9.7.4.6.7.7l.4.1c.7.3 1.3.7 1.3 1.6s-.7 1.6-1.7 1.6c-.8 0-1.5-.6-1.6-1.5l.7-.1c0 .6.4 1 1 1s1-.5 1-1c0-.6-.4-.8-.9-1l-.4-.2c-.6-.3-1.1-.6-1.1-1.3 0-.8.7-1.3 1.5-1.3.6 0 1.1.3 1.3.8z"></path></g></svg>