<svg width="41" height="41" viewBox="0 0 41 41" fill="none" xmlns="http://www.w3.org/2000/svg">
<path d="M0.652344 20.8718C0.652344 9.82613 9.60665 0.871826 20.6523 0.871826C31.698 0.871826 40.6523 9.82613 40.6523 20.8718C40.6523 31.9175 31.698 40.8718 20.6523 40.8718C9.60665 40.8718 0.652344 31.9175 0.652344 20.8718Z" fill="#56A4D8"/>
<path d="M10.5899 19.5277C16.8534 16.7988 21.03 14.9998 23.1198 14.1306C29.0866 11.6488 30.3264 11.2177 31.1345 11.2033C31.3123 11.2003 31.7097 11.2443 31.9671 11.4532C32.1844 11.6296 32.2443 11.8678 32.2729 12.0351C32.3015 12.2023 32.3371 12.5832 32.3088 12.8809C31.9855 16.2783 30.5864 24.5228 29.8746 28.3279C29.5734 29.938 28.9804 30.4779 28.4062 30.5307C27.1585 30.6455 26.2111 29.7061 25.0026 28.914C23.1116 27.6744 22.0433 26.9027 20.2078 25.6931C18.0865 24.2952 19.4616 23.5269 20.6705 22.2713C20.9869 21.9427 26.4843 16.9423 26.5907 16.4887C26.604 16.432 26.6164 16.2205 26.4908 16.1089C26.3651 15.9972 26.1797 16.0354 26.0459 16.0658C25.8563 16.1088 22.8353 18.1055 16.9832 22.0559C16.1257 22.6447 15.349 22.9316 14.6532 22.9166C13.886 22.9 12.4103 22.4828 11.3133 22.1262C9.96778 21.6888 8.89837 21.4576 8.99149 20.7148C9.04 20.3279 9.57279 19.9322 10.5899 19.5277Z" fill="white"/>
</svg>
