<svg width="45" height="45" viewBox="0 0 45 45" fill="none" xmlns="http://www.w3.org/2000/svg">
<g clip-path="url(#clip0_6_357)">
<path d="M0 21.5999C0 11.4175 0 6.32637 3.16325 3.16312C6.32649 -0.00012207 11.4176 -0.00012207 21.6 -0.00012207H23.4C33.5824 -0.00012207 38.6735 -0.00012207 41.8368 3.16312C45 6.32637 45 11.4175 45 21.5999V23.3999C45 33.5823 45 38.6733 41.8368 41.8367C38.6735 44.9999 33.5824 44.9999 23.4 44.9999H21.6C11.4176 44.9999 6.32649 44.9999 3.16325 41.8367C0 38.6733 0 33.5823 0 23.3999V21.5999Z" fill="#0077FF"/>
<path d="M23.9437 32.4189C13.6874 32.4189 7.8375 25.3876 7.59375 13.6876H12.7313C12.9 22.2751 16.6874 25.9126 19.6874 26.6626V13.6876H24.5251V21.0939C27.4876 20.7751 30.5997 17.4001 31.6497 13.6876H36.4873C35.6811 18.2626 32.3061 21.6376 29.9061 23.0251C32.3061 24.1501 36.15 27.0939 37.6125 32.4189H32.2873C31.1436 28.8564 28.2938 26.1001 24.5251 25.7251V32.4189H23.9437Z" fill="white"/>
</g>
<defs>
<clipPath id="clip0_6_357">
<rect width="45" height="45" fill="white"/>
</clipPath>
</defs>
</svg>
