<svg class="lds-spinner" width="100" height="100" xmlns="http://www.w3.org/2000/svg" preserveAspectRatio="xMidYMid" style="background:0 0"><rect x="47" y="24" rx="9.4" ry="4.8" width="6" height="12" fill="#fe5000"><animate attributeName="opacity" values="1;0" dur="1s" begin="-0.9s" repeatCount="indefinite"/></rect><rect x="47" y="24" rx="9.4" ry="4.8" width="6" height="12" fill="#fe5000" transform="rotate(36 50 50)"><animate attributeName="opacity" values="1;0" dur="1s" begin="-0.8s" repeatCount="indefinite"/></rect><rect x="47" y="24" rx="9.4" ry="4.8" width="6" height="12" fill="#fe5000" transform="rotate(72 50 50)"><animate attributeName="opacity" values="1;0" dur="1s" begin="-0.7s" repeatCount="indefinite"/></rect><rect x="47" y="24" rx="9.4" ry="4.8" width="6" height="12" fill="#fe5000" transform="rotate(108 50 50)"><animate attributeName="opacity" values="1;0" dur="1s" begin="-0.6s" repeatCount="indefinite"/></rect><rect x="47" y="24" rx="9.4" ry="4.8" width="6" height="12" fill="#fe5000" transform="rotate(144 50 50)"><animate attributeName="opacity" values="1;0" dur="1s" begin="-0.5s" repeatCount="indefinite"/></rect><rect x="47" y="24" rx="9.4" ry="4.8" width="6" height="12" fill="#fe5000" transform="rotate(180 50 50)"><animate attributeName="opacity" values="1;0" dur="1s" begin="-0.4s" repeatCount="indefinite"/></rect><rect x="47" y="24" rx="9.4" ry="4.8" width="6" height="12" fill="#fe5000" transform="rotate(216 50 50)"><animate attributeName="opacity" values="1;0" dur="1s" begin="-0.3s" repeatCount="indefinite"/></rect><rect x="47" y="24" rx="9.4" ry="4.8" width="6" height="12" fill="#fe5000" transform="rotate(252 50 50)"><animate attributeName="opacity" values="1;0" dur="1s" begin="-0.2s" repeatCount="indefinite"/></rect><rect x="47" y="24" rx="9.4" ry="4.8" width="6" height="12" fill="#fe5000" transform="rotate(288 50 50)"><animate attributeName="opacity" values="1;0" dur="1s" begin="-0.1s" repeatCount="indefinite"/></rect><rect x="47" y="24" rx="9.4" ry="4.8" width="6" height="12" fill="#fe5000" transform="rotate(324 50 50)"><animate attributeName="opacity" values="1;0" dur="1s" begin="0s" repeatCount="indefinite"/></rect></svg>